Walden may have been MekasΓÇÖ first diary film, but the film that incorporated MekasΓÇÖ earliest footage was the one that told the story of his postwar arrival in America, Lost Lost Lost. The film is divided into two parts: the first concerns life in the Lithuanian community of Williamsburg, and the second chronicles MekasΓÇÖ move to Manhattan and his integration into the independent film and art scenes of New York. Shot between 1949 and 1963, this filmed diary chronicles Lithuanian exile Jonas MekasΓÇÖ arrival in New York and the travails he experienced in the immigrant community. His later introduction to the New York art-house scene is also included, with footage from the Living Theatre, Frank OΓÇÖHara, Allen Ginsberg, etc.

__________________________________________

Subtitles: English, French, Lithuanian

__________________________________________


General
Complete name                    : Lost, Lost, Lost (Jonas Mekas, 1976).mkv
Format                           : Matroska
File size                        : 2.43 GiB
Duration                         : 2h 45mn
Overall bit rate                 : 2 096 Kbps
Writing application              : HandBrake 0.9.8
Writing library                  : libmkv 0.6.5

Video
ID                               : 1
Format                           : AVC
Format/Info                      : Advanced Video Codec
Format profile                   : High@L3.1
Format settings, CABAC           : Yes
Format settings, ReFrames        : 11 frames
Codec ID                         : V_MPEG4/ISO/AVC
Duration                         : 2h 45mn
Bit rate                         : 1 900 Kbps
Width                            : 720 pixels
Height                           : 576 pixels
Display aspect ratio             : 4:3
Frame rate                       : 25.000 fps
Standard                         : PAL
Color space                      : YUV
Chroma subsampling               : 4:2:0
Bit depth                        : 8 bits
Scan type                        : Progressive
Bits/(Pixel*Frame)               : 0.183
Stream size                      : 2.15 GiB (89%)
Writing library                  : x264 core 120
Encoding settings                : cabac=1 / ref=11 / deblock=1:-2:-2 / analyse=0x3:0x133 / me=umh / subme=11 / psy=1 / psy_rd=1.00:0.00 / mixed_ref=1 / me_range=50 / chroma_me=1 / trellis=2 / 8x8dct=1 / cqm=0 / deadzone=21,11 / fast_pskip=0 / chroma_qp_offset=-2 / threads=3 / sliced_threads=0 / nr=0 / decimate=1 / interlaced=0 / bluray_compat=0 / constrained_intra=0 / bframes=9 / b_pyramid=2 / b_adapt=2 / b_bias=0 / direct=3 / weightb=1 / open_gop=0 / weightp=2 / keyint=250 / keyint_min=25 / scenecut=40 / intra_refresh=0 / rc_lookahead=50 / rc=abr / mbtree=1 / bitrate=1900 / ratetol=1.0 / qcomp=0.60 / qpmin=3 / qpmax=69 / qpstep=4 / ip_ratio=1.40 / aq=2:1.00
Language                         : English
Color primaries                  : BT.601-6 525, BT.1358 525, BT.1700 NTSC, SMPTE 170M
Transfer characteristics         : BT.709-5, BT.1361
Matrix coefficients              : BT.601-6 525, BT.1358 525, BT.1700 NTSC, SMPTE 170M

Audio
ID                               : 2
Format                           : AC-3
Format/Info                      : Audio Coding 3
Mode extension                   : CM (complete main)
Codec ID                         : A_AC3
Duration                         : 2h 45mn
Bit rate mode                    : Constant
Bit rate                         : 192 Kbps
Channel(s)                       : 2 channels
Channel positions                : Front: L R
Sampling rate                    : 48.0 KHz
Bit depth                        : 16 bits
Compression mode                 : Lossy
Stream size                      : 227 MiB (9%)
Language                         : English